<svg xmlns="http://www.w3.org/2000/svg" xmlns:xlink="http://www.w3.org/1999/xlink" width="461.8" height="89.8"><g fill="#29324a"><use xlink:href="#a"/><path d="M287.8 55.9c-2 .8-5 .9-7 .9-2.2 0-5.2-.2-7.6-.4v-2.7c2.4.3 5.3.4 7.7.4 1.7 0 3.8 0 5.2-.4 1.7-.5 2.1-1.7 2.1-2.9 0-1.6-.7-2.3-2.3-2.9-1.9-.6-4-.8-6.6-1.3-4.3-.8-6.2-2.2-6.2-5.7 0-1.9.7-3.7 3-4.8 1.9-.8 4.8-.9 6.7-.9 2.1 0 4.4.2 6.8.4v2.5l-7-.4c-1.5 0-3.4 0-4.7.4-1.6.4-2 1.6-2 2.7 0 1.5.7 2.3 2.2 2.8 2 .6 4 .8 6.6 1.3 4.3.8 6.3 2.2 6.3 5.8-.1 2.2-.8 4.1-3.2 5.2zm24.8 0c-2 .8-5 .9-7 .9-2.2 0-5.2-.2-7.6-.4v-2.7c2.4.3 5.3.4 7.7.4 1.7 0 3.8 0 5.2-.4 1.7-.5 2.1-1.7 2.1-2.9 0-1.6-.7-2.3-2.3-2.9-1.9-.6-4-.8-6.6-1.3-4.3-.8-6.2-2.2-6.2-5.7 0-1.9.7-3.7 3-4.8 1.9-.8 4.8-.9 6.7-.9 2.1 0 4.4.2 6.8.4v2.5l-7-.4c-1.5 0-3.4 0-4.8.4-1.6.4-2 1.6-2 2.7 0 1.5.7 2.3 2.2 2.8 2 .6 4 .8 6.6 1.3 4.3.8 6.3 2.2 6.3 5.8 0 2.2-.7 4.1-3.1 5.2zm11.7-25.3v-3.3h3.3v3.3h-3.3zm3.1 25.7h-2.9V35.9h3l-.1 20.4zm23.6-.4c-2 .8-5 .9-7 .9-2.2 0-5.2-.2-7.6-.4v-2.7c2.4.3 5.3.4 7.7.4 1.7 0 3.8 0 5.2-.4 1.7-.5 2.1-1.7 2.1-2.9 0-1.6-.7-2.3-2.3-2.9-1.9-.6-4-.8-6.6-1.3-4.3-.8-6.2-2.2-6.2-5.7 0-1.9.7-3.7 3-4.8 1.9-.8 4.8-.9 6.7-.9 2.1 0 4.4.2 6.8.4v2.5l-7-.4c-1.5 0-3.4 0-4.8.4-1.6.4-2 1.6-2 2.7 0 1.5.7 2.3 2.2 2.8 2 .6 4 .8 6.6 1.3 4.3.8 6.3 2.2 6.3 5.8.1 2.2-.6 4.1-3.1 5.2z"/><use xlink:href="#b"/><use xlink:href="#a" x="140.3"/><path d="M434.9 56.3V43.8c0-4.4-2.6-5.8-6.4-5.8-3.3 0-6.9.7-10.4 1.5v16.7h-3V35.9h2.5l.2 1.2c3.4-.8 7.6-1.8 11.1-1.8 2.6 0 5 .4 6.8 2.1 1.8 1.6 2.2 3.5 2.2 6.2v12.7h-3z"/><use xlink:href="#b" x="85.2"/><path d="M0 84.5V2.9C0 1.3 1.3 0 2.9 0h218.7c1.6 0 2.9 1.3 2.9 2.9v81.6z"/></g><path fill="#fff" d="M42.4 62.3c-3.1 1.4-7.6 1.6-11.1 1.6a143 143 0 0 1-13-.6v-6.4c3.7.4 8.7.7 12.3.7 2.7 0 5.3-.1 7-.4 1.8-.4 2.3-1.4 2.3-2.7 0-1.5-.7-2.2-2.4-2.7-2.1-.6-4.9-1-8.1-1.5-7.9-1.4-11.2-3.6-11.2-9.4 0-3.5 1.3-6.4 5-8.2 2.9-1.4 7.4-1.5 10.6-1.5 3.8 0 7.7.2 11.7.6V38c-3.7-.4-8.1-.7-12-.7-1.8 0-4.1 0-5.7.3-1.7.4-2.1 1.4-2.1 2.5 0 1.5.7 2.1 2.3 2.6 2.1.6 4.8.9 8 1.5 8.1 1.3 11.5 3.5 11.5 9.6.1 3.7-1.3 6.8-5.1 8.5zm49.9-1.7c-3.8 2.6-8.8 3.3-14.9 3.3-6.2 0-11.2-.7-14.9-3.3-4.3-2.8-5.8-7.5-5.8-13.1s1.5-10.3 5.8-13.1c3.7-2.5 8.7-3.3 14.9-3.3 6.1 0 11.1.7 14.9 3.3 4.3 2.8 5.8 7.6 5.8 13.1 0 5.6-1.5 10.3-5.8 13.1zm-14.8-23c-8.2 0-11.9 2.6-11.9 9.6 0 7.1 3.6 10.1 11.9 10.1 8.2 0 11.7-2.5 11.7-9.6 0-7-3.5-10.1-11.7-10.1zM109.9 63V18.9h8.7V63h-8.7zm51.7 0-.2-1.8c-5.3 1.3-11.4 2.7-16.8 2.7-3.3 0-6.9-.4-9.4-2.3-2.3-1.7-3.4-4.4-3.4-7.5 0-3.5 1.5-6.8 5.2-8.4 3.3-1.5 7.6-1.7 11.6-1.7 3.3 0 7.6.2 11.2.4v-.6c0-4.9-3.2-6.4-11.9-6.4-3.4 0-7.5.2-11.4.6v-6.3a154.83 154.83 0 0 1 13.3-.6c5.4 0 11 .4 14.4 2.9 3.6 2.5 4.2 6 4.2 10.6V63h-6.8zm-1.9-13c-3.6-.3-7.3-.5-11.2-.5-6.3 0-8.5 1.3-8.5 4.2 0 2.7 1.8 4.2 6.7 4.2 4.1 0 8.9-.9 13-1.8V50zm22.9 13V32h7.1l.3 2c5.7-1.6 9.9-2.8 15.4-2.8.2 0 .6 0 1.1.1v7.4c-1-.1-2.1-.1-3-.1-4.2 0-7.4.5-12.2 1.6V63h-8.7z"/><defs><path id="a" d="m262.2 56.3-.2-1.2c-3.3.8-7.7 1.8-10.9 1.8-2 0-4.4-.2-6.2-1.4-1.5-1-2.3-2.8-2.3-4.9 0-2.3.9-4.4 3.5-5.4 1.9-.8 4.2-.9 6.7-.9a146.77 146.77 0 0 1 8.9.3V44c0-4.5-2.4-6.1-8.7-6.1-2.4 0-4.9.2-7.3.4v-2.6c2.5-.2 5.1-.4 7.6-.4 3.3 0 6.6.4 8.7 2 2.4 1.9 2.6 4.1 2.6 7v11.9h-2.4zm-.6-9.4a136.03 136.03 0 0 0-9.1-.3c-5.5 0-7 1.4-7 3.8 0 2.5 1.7 3.9 5.8 3.9 3.2 0 6.8-.7 10.3-1.5v-5.9z"/><path id="b" d="M371.6 56.8c-3.3 0-5.7-1.2-6.6-3.7-.6-1.6-.8-3.4-.8-5.8v-8.9h-4.8v-2.5h4.8l.4-6.2h2.5v6.2h8.9v2.5h-8.9v8.5c0 1.8.1 3.5.5 4.7.6 1.9 2.5 2.6 4.5 2.6 1.6 0 3.2-.2 4.5-.4v2.5c-1.4.2-3.3.5-5 .5z"/></defs><path fill="#fae98c" d="M221.55 89.8H179.5v-5.3h45v2.3c0 1.6-1.35 3-2.95 3z"/><path fill="#f28221" d="M45 89.8H2.9A2.9 2.9 0 0 1 0 86.9v-2.4h45z"/><path fill="#f3bc19" d="M44.9 84.5H90v5.3H44.9z"/><path fill="#f8e651" d="M134.5 84.5h45.2v5.3h-45.2z"/><path fill="#fcd343" d="M89.8 84.5h45v5.3h-45z"/></svg>