<svg xmlns="http://www.w3.org/2000/svg" width="360.33" height="360.33"><path d="M352.3 8.36A27.82 27.82 0 0 0 332.55 0h-.23a28.08 28.08 0 0 0-28 27.77c-.06 7.47 2.8 14.53 8.04 19.86s12.25 8.3 19.73 8.36h.24a28.08 28.08 0 0 0 27.99-27.76 27.82 27.82 0 0 0-8.04-19.87zm-19.96 37.3-.15-.01a17.54 17.54 0 0 1-12.44-5.27 17.54 17.54 0 0 1-5.07-12.53c.08-9.65 8-17.5 17.65-17.5h.15c4.71.03 9.13 1.9 12.44 5.27 3.3 3.36 5.1 7.8 5.06 12.52a17.7 17.7 0 0 1-17.64 17.51zM28.23 152.17h-.24A28.07 28.07 0 0 0 0 179.94a28.03 28.03 0 0 0 27.77 28.22H28a28.08 28.08 0 0 0 28-27.76 28.03 28.03 0 0 0-27.77-28.23zM28 197.82h-.15a17.67 17.67 0 0 1-17.5-17.8 17.68 17.68 0 0 1 17.64-17.5h.15a17.67 17.67 0 0 1 17.5 17.79A17.7 17.7 0 0 1 28 197.81zM133.59 46.81h-.24a28.07 28.07 0 0 0-28 27.77 28.03 28.03 0 0 0 27.77 28.22h.24a28.08 28.08 0 0 0 27.99-27.76 28.03 28.03 0 0 0-27.76-28.23zm-.23 45.65h-.15a17.67 17.67 0 0 1-17.51-17.8c.08-9.65 8-17.5 17.65-17.5h.15a17.67 17.67 0 0 1 17.5 17.8 17.7 17.7 0 0 1-17.64 17.5zm76.31 30.44h-.24a28.07 28.07 0 0 0-27.99 27.76 28.03 28.03 0 0 0 27.77 28.23h.23a28.08 28.08 0 0 0 28-27.77 28.03 28.03 0 0 0-27.77-28.22zm-.23 45.65h-.15a17.67 17.67 0 0 1-17.5-17.8 17.69 17.69 0 0 1 17.64-17.51h.15a17.67 17.67 0 0 1 17.5 17.8 17.7 17.7 0 0 1-17.64 17.5z"/><path d="m221.89 131.08 90.5-90.73 7.32 7.3-90.5 90.74zm-76.05-36.46 7.3-7.32 43.84 43.84-7.3 7.3zM40.47 160.37l73.08-73.08 7.31 7.31-73.07 73.08zm256.26-61.85v253.81h63.6V98.52Zm10.34 243.47V108.86h42.92V342zM197.82 205.03v147.3h63.6v-147.3ZM251.08 342h-42.92V215.38h42.92zM98.9 197.43v154.9h63.61v-154.9Zm53.27 144.56h-42.92V207.77h42.92zM0 235.47v116.86h63.6V235.47Zm53.26 106.52H10.34V245.8h42.92V342z"/></svg>