<svg xmlns="http://www.w3.org/2000/svg" width="360.3" height="360.3"><path d="M324.5 144.1h-27c-2.3-7.4-5.2-14.5-8.8-21.3l19.1-19.1c4.1-4.1 6.3-9.5 6.3-15.3 0-5.8-2.3-11.2-6.3-15.3l-20.4-20.4c-8.2-8.2-22.5-8.2-30.6 0l-19.1 19.1c-6.8-3.6-13.9-6.6-21.3-8.8V36c0-11.9-9.7-21.7-21.7-21.7h-28.9c-11.9 0-21.7 9.7-21.7 21.7v27c-7.4 2.3-14.5 5.2-21.3 8.8l-19.1-19.1c-8.4-8.4-22.2-8.4-30.6 0L52.6 73c-8.4 8.4-8.4 22.2 0 30.6l19.1 19.1c-3.6 6.8-6.6 13.9-8.8 21.3h-27c-11.9 0-21.7 9.7-21.7 21.7v28.9c0 11.9 9.7 21.6 21.7 21.6h27c2.3 7.4 5.2 14.5 8.8 21.3l-19.1 19.1c-8.4 8.4-8.4 22.2 0 30.6L73 307.7c8.4 8.4 22.2 8.4 30.6 0l19.1-19.1c6.8 3.6 13.9 6.6 21.3 8.8v27c0 11.9 9.7 21.7 21.7 21.7h28.9c11.9 0 21.7-9.7 21.7-21.7v-27c7.4-2.3 14.5-5.2 21.3-8.8l19.1 19.1c8.2 8.2 22.5 8.2 30.6 0l20.4-20.4c4.1-4.1 6.3-9.5 6.3-15.3 0-5.8-2.3-11.2-6.3-15.3l-19.1-19.1c3.6-6.8 6.6-13.9 8.8-21.3h27c11.9 0 21.7-9.7 21.7-21.7v-28.9c0-11.9-9.7-21.6-21.6-21.6zm7.2 50.5c0 4-3.2 7.2-7.2 7.2H292c-3.3 0-6.2 2.2-7 5.4-2.6 9.9-6.4 19.3-11.6 27.9a7.28 7.28 0 0 0 1.1 8.8l22.9 23a7.1 7.1 0 0 1 2.1 5.1c0 1.9-.8 3.8-2.1 5.1L277 297.5a7.43 7.43 0 0 1-10.2 0l-22.9-22.9a7.24 7.24 0 0 0-8.8-1.1c-8.7 5.1-18.1 9-27.9 11.6-3.2.8-5.4 3.7-5.4 7v32.5c0 4-3.2 7.2-7.2 7.2h-28.9c-4 0-7.2-3.2-7.2-7.2V292c0-3.3-2.2-6.2-5.4-7-9.9-2.5-19.3-6.4-27.9-11.6-1.1-.7-2.4-1-3.7-1-1.9 0-3.7.7-5.1 2.1l-22.9 22.9a7.24 7.24 0 0 1-10.2 0L62.9 277a7.24 7.24 0 0 1 0-10.2l22.9-22.9c2.3-2.3 2.8-5.9 1.1-8.8-5.1-8.7-9-18.1-11.6-27.9-.8-3.2-3.7-5.4-7-5.4H35.8c-4 0-7.2-3.2-7.2-7.2v-28.9c0-4 3.2-7.2 7.2-7.2h32.5c3.3 0 6.2-2.2 7-5.4 2.5-9.9 6.4-19.3 11.6-27.9 1.7-2.8 1.2-6.4-1.1-8.8l-23-23a7.24 7.24 0 0 1 0-10.2l20.4-20.4c2.8-2.8 7.4-2.8 10.2 0l22.9 22.9c2.3 2.3 5.9 2.8 8.8 1.1 8.7-5.1 18.1-9 27.9-11.6 3.2-.8 5.4-3.7 5.4-7V35.8c0-4 3.2-7.2 7.2-7.2h28.9c4 0 7.2 3.2 7.2 7.2v32.5c0 3.3 2.2 6.2 5.4 7 9.9 2.5 19.3 6.4 27.9 11.6 2.8 1.7 6.5 1.2 8.8-1.1l22.9-22.9c2.7-2.7 7.5-2.7 10.2 0l20.4 20.4a7.1 7.1 0 0 1 2.1 5.1c0 1.9-.8 3.8-2.1 5.1l-22.9 22.9a7.24 7.24 0 0 0-1.1 8.8c5.1 8.7 9 18.1 11.6 27.9.8 3.2 3.7 5.4 7 5.4h32.5c4 0 7.2 3.2 7.2 7.2v28.9z"/><path d="M180.1 115.2c-35.8 0-65 29.1-65 65 0 35.8 29.1 65 65 65a65 65 0 1 0 0-130zm0 115.5c-27.9 0-50.5-22.7-50.5-50.5s22.7-50.5 50.5-50.5 50.5 22.7 50.5 50.5-22.6 50.5-50.5 50.5z"/></svg>