<svg xmlns="http://www.w3.org/2000/svg" width="360.3" height="360.3"><path d="M138.97 150.8H24c-10.56 0-19.09-8.44-19.09-18.68V21.28C4.9 10.95 13.53 2.6 23.99 2.6h114.98c10.56 0 19.09 8.44 19.09 18.68v110.75c0 10.33-8.53 18.78-19.09 18.78zM24 12.49c-4.96 0-9 3.95-9 8.8v110.75c0 4.85 4.04 8.8 9 8.8h114.98c4.96 0 9-3.95 9-8.8V21.28c0-4.85-4.04-8.8-9-8.8H24Zm313.02 137.56H222.03c-10.55 0-19.09-8.44-19.09-18.68V20.53c0-10.33 8.63-18.68 19.1-18.68h114.98c10.55 0 19.08 8.44 19.08 18.68v110.75c0 10.33-8.53 18.77-19.08 18.77zM222.03 11.73c-4.95 0-9 3.95-9 8.8v110.75c0 4.85 4.05 8.8 9 8.8h114.99a8.91 8.91 0 0 0 8.99-8.8V20.53c0-4.85-4.04-8.8-9-8.8H222.04Zm114.99 340.32H222.03c-10.55 0-19.09-8.44-19.09-18.68V222.53c0-10.33 8.63-18.68 19.1-18.68h114.98c10.55 0 19.08 8.44 19.08 18.68v110.75c0 10.33-8.53 18.77-19.08 18.77zM222.03 213.73c-4.95 0-9 3.95-9 8.8v110.75c0 4.85 4.05 8.8 9 8.8h114.99a8.91 8.91 0 0 0 8.99-8.8V222.53c0-4.85-4.04-8.8-9-8.8H222.04ZM140.16 352H25.18c-10.56 0-19.09-8.44-19.09-18.68V222.48c0-10.33 8.63-18.68 19.09-18.68h114.98c10.55 0 19.09 8.44 19.09 18.68v110.76c0 10.32-8.54 18.77-19.09 18.77zM25.18 213.69c-4.96 0-9 3.95-9 8.8v110.76c0 4.85 4.04 8.8 9 8.8h114.98c4.96 0 9-3.95 9-8.8V222.48c0-4.85-4.04-8.8-9-8.8H25.18Z"/></svg>