<svg xmlns="http://www.w3.org/2000/svg" width="360.3" height="360.3"><path d="M128.4 359.3c-2.6 0-5.2-.6-7.5-1.9-7-3.7-10.2-11.8-7.7-19.3L150.5 225H84.2a16 16 0 0 1-14.2-8.6c-2.8-5.4-2.4-11.7 1-16.7L203.9 7.9a16.05 16.05 0 0 1 28.9 12.6l-25.3 114.8H276c6.2 0 11.7 3.4 14.4 9 2.7 5.6 2.1 12-1.7 16.9L141.1 353.1c-3 3.9-7.7 6.2-12.7 6.2zm88.8-345.4c-1 0-2 .5-2.6 1.3l-132.9 192a3.03 3.03 0 0 0 2.5 4.8h84.3l-43 130.3a3 3 0 0 0 1.5 3.7c.4.2.9.4 1.4.4 1 0 1.9-.4 2.4-1.2l147.7-191.9c.7-.9.8-2.2.3-3.3-.5-1.1-1.6-1.7-2.8-1.7h-84.7l28.8-130.6c.3-1.4-.4-2.9-1.8-3.5-.3-.2-.7-.3-1.1-.3z"/></svg>