<svg xmlns="http://www.w3.org/2000/svg" viewBox="0 0 480 480"><defs><linearGradient id="a" x1="51.04" x2="218.39" y1="189.93" y2="189.93" gradientUnits="userSpaceOnUse"><stop offset="0" stop-color="#ffe7a3"/><stop offset=".5" stop-color="#ffca05"/><stop offset="1" stop-color="#faac18"/></linearGradient></defs><path fill="#29324a" d="M140.9 72.5a5.9 5.9 0 0 0-5.9 6v18.3a114.2 114.2 0 0 0-14.6 1.8c0-.1-.1-.2-.1-.3l-2.9-10.8a6.1 6.1 0 0 0-5.7-4.5 6 6 0 0 0-6.1 5.9 5.2 5.2 0 0 0 .2 1.7l2.9 10.8v.4a101.2 101.2 0 0 0-13.5 5.7c-.1-.2-.2-.3-.2-.4l-9-15.5a6.3 6.3 0 0 0-5.4-3.1 6.2 6.2 0 0 0-5.6 6.3 4.7 4.7 0 0 0 .9 2.8l8.9 15.5c0 .1.1.2.2.3a92.2 92.2 0 0 0-11.6 9l-.3-.3-7.9-7.9a6.1 6.1 0 0 0-4.4-1.9 6.1 6.1 0 0 0-4.1 10.4l7.9 7.8.3.4a102.6 102.6 0 0 0-9 11.6l-.3-.2-15.5-9a5.4 5.4 0 0 0-2.8-.8h-.6a6 6 0 0 0-5.6 6.4 5.8 5.8 0 0 0 3 4.8l15.5 9 .4.2a101.2 101.2 0 0 0-5.7 13.5h-.4l-10.8-2.9a5.5 5.5 0 0 0-1.8-.2 5.9 5.9 0 0 0-5.8 6.1A6.1 6.1 0 0 0 30 175l10.8 2.9h.3a114.2 114.2 0 0 0-1.8 14.6H21a6 6 0 0 0-6 6 5.9 5.9 0 0 0 5.9 6h18.3a100.6 100.6 0 0 0 2 14.6h-.4l-10.8 3a6 6 0 1 0 2.9 11.6h.2l10.8-2.9h.3a101.2 101.2 0 0 0 5.7 13.5l-.3.2-15.5 8.9a6.2 6.2 0 0 0-2.5 8.2 6.1 6.1 0 0 0 8.1 2.5l.4-.3 15.5-8.9.3-.2a112.7 112.7 0 0 0 8.9 11.7c-.1.1-.2.1-.2.2l-7.9 7.9a6 6 0 0 0 8.3 8.7c0-.1.1-.1.2-.2l7.9-7.9a.2.2 0 0 1 .2-.2l3.4 2.8A70.7 70.7 0 0 0 45 336.5a72.1 72.1 0 0 0 72 72h24a5.9 5.9 0 0 0 6.1-5.9 6 6 0 0 0-5.9-6.1H117a60 60 0 0 1-5.2-119.7l4.2-.4h1a5.9 5.9 0 0 0 6-6 6 6 0 0 0-4.6-5.8 53.9 53.9 0 0 1 52.6-42.1h1.8l5 .2 1.1-4.9a77.9 77.9 0 0 1 149.7-9.1l1.8 5.2 5.4-1.4a59.3 59.3 0 0 1 15.2-2.1 59.9 59.9 0 0 1 60 60 63.3 63.3 0 0 1-1.4 13.1l-1.2 5.5 5.4 1.5a54 54 0 0 1-14.8 106H131a6 6 0 0 0-6 6 5.9 5.9 0 0 0 5.9 6H399a66.1 66.1 0 0 0 66-66c0-28.2-18.1-51.8-43.2-61.2a62.6 62.6 0 0 0 1.2-10.8 72.1 72.1 0 0 0-72-72c-4.7 0-9.1 1-13.5 1.8-13.5-32.5-45-55.8-82.5-55.8-3.2 0-6.3.3-9.4.6l2.4-1.4a5.9 5.9 0 0 0 2.3-8.1 6.2 6.2 0 0 0-5.1-3.1 7.2 7.2 0 0 0-3.2.8l-15.5 9-.3.2a101.1 101.1 0 0 0-9-11.7l.3-.3 7.9-7.8a6 6 0 0 0 .1-8.5 5.8 5.8 0 0 0-8.6 0l-7.9 7.9-.2.2a112.7 112.7 0 0 0-11.7-8.9c.1-.1.2-.2.2-.3l8.9-15.5a6 6 0 0 0-2-8.2 5.6 5.6 0 0 0-3.1-.9 5.9 5.9 0 0 0-5.2 3.1l-9 15.5c0 .1-.1.2-.1.3a94.8 94.8 0 0 0-13.6-5.6.6.6 0 0 1 .1-.4l2.9-10.8a6 6 0 0 0-4.2-7.4 6.2 6.2 0 0 0-1.9-.2 6 6 0 0 0-5.5 4.5l-2.9 10.8c0 .1-.1.2-.1.4a98.7 98.7 0 0 0-14.6-1.9V78.5a5.9 5.9 0 0 0-5.9-6Zm.1 36a90 90 0 0 1 77.4 44 90.7 90.7 0 0 0-49.5 58.4 65.4 65.4 0 0 0-62.3 55.1 75 75 0 0 0-18.4 5.3A89.9 89.9 0 0 1 141 108.5Zm54 108a6 6 0 0 0-6 6 6 6 0 0 0 6 6 5.9 5.9 0 0 0 6-6 6 6 0 0 0-6-6Zm144 6a6 6 0 0 0-6 6 6 6 0 0 0 6 6 5.9 5.9 0 0 0 6-6 6 6 0 0 0-6-6Zm-126 6a6 6 0 0 0-6 6 6 6 0 0 0 6 6 5.9 5.9 0 0 0 6-6 6 6 0 0 0-6-6Zm126 18a6 6 0 0 0-6 6 6 6 0 0 0 6 6 5.9 5.9 0 0 0 6-6 6 6 0 0 0-6-6Zm-198 24a6 6 0 0 0-6 6 6 6 0 0 0 6 6 5.9 5.9 0 0 0 6-6 6 6 0 0 0-6-6Zm24 12a6 6 0 0 0-6 6 6 6 0 0 0 6 6 5.9 5.9 0 0 0 6-6 6 6 0 0 0-6-6Zm240 18a6 6 0 0 0-6 6 6 6 0 0 0 6 6 5.9 5.9 0 0 0 6-6 6 6 0 0 0-6-6Zm-12 18a6 6 0 0 0-6 6 6 6 0 0 0 6 6 5.9 5.9 0 0 0 6-6 6 6 0 0 0-6-6Z"/><path fill="url(#a)" d="M141 108.5a90 90 0 0 1 77.4 44 90.7 90.7 0 0 0-49.5 58.4 65.4 65.4 0 0 0-62.3 55.1 75 75 0 0 0-18.4 5.3A89.9 89.9 0 0 1 141 108.5Z"/></svg>